{"title":"SPY.2015.FULL.NEW.CAM.XVID.AC3.MRG","uid":12003630,"size":1599135790,"categoryP":"video","categoryS":"movies","magnet":"?xt=urn:btih:2a147fce9b5877dbc8653a5728d285819f269515&amp;dn=SPY.2015.FULL.NEW.CAM.XVID.AC3.MRG&amp;tr=udp%3A%2F%2Ftracker.openbittorrent.com%3A80&amp;tr=udp%3A%2F%2Fopen.demonii.com%3A1337&amp;tr=udp%3A%2F%2Ftracker.coppersurfer.tk%3A6969&amp;tr=udp%3A%2F%2Fexodus.desync.com%3A6969","seeders":7,"leechers":2,"uploader":"makintos13","files":15,"time":1433831444,"description":"screens:\n &lt;a href=&quot;\nhttp://imgmak.com/3E&quot; rel=&quot;nofollow&quot; target=&quot;_NEW&quot;&gt;\nhttp://imgmak.com/3E&lt;/a&gt;\n &lt;a href=&quot;\nhttp://imgmak.com/3h&quot; rel=&quot;nofollow&quot; target=&quot;_NEW&quot;&gt;\nhttp://imgmak.com/3h&lt;/a&gt;\n &lt;a href=&quot;\nhttp://imgmak.com/3l&quot; rel=&quot;nofollow&quot; target=&quot;_NEW&quot;&gt;\nhttp://imgmak.com/3l&lt;/a&gt;\n &lt;a href=&quot;\nhttp://imgmak.com/3V&quot; rel=&quot;nofollow&quot; target=&quot;_NEW&quot;&gt;\nhttp://imgmak.com/3V&lt;/a&gt;\n\n:::::::::::::::::::::::::::::::::::::::::::::\n\nSPY.2015.FULL.NEW.CAM.XVID.AC3.MRG\n\nM.R.G.....info....\n\nnew video....:)\n\nheres another new source full movie ...same audio...\nbeen worked a bit sounds a little better .....\n\n\nFormat : AVI\nFormat/Info : Audio Video Interleave\nFile size : 1.49 GiB\nDuration : 1h 55mn\nOverall bit rate : 1 842 Kbps\n\nVideo\nID : 0\nFormat : MPEG-4 Visual\nFormat profile : Advanced Simple@L5\nFormat settings, BVOP : 2\nFormat settings, QPel : No\nFormat settings, GMC : No warppoints\nFormat settings, Matrix : Default (H.263)\nCodec ID : XVID\nCodec ID/Hint : XviD\nDuration : 1h 55mn\nBit rate : 1 702 Kbps\nWidth : 720 pixels\nHeight : 280 pixels\nDisplay aspect ratio : 2.571\nFrame rate : 29.970 fps\nColor space : YUV\nChroma subsampling : 4:2:0\nBit depth : 8 bits\nScan type : Progressive\nCompression mode : Lossy\nBits/(Pixel*Frame) : 0.282\nStream size : 1.37 GiB (92%)\nWriting library : XviD 73\n\nAudio\nID : 1\nFormat : AC-3\nFormat/Info : Audio Coding 3\nMode extension : CM (complete main)\nFormat settings, Endianness : Big\nCodec ID : 2000\nDuration : 1h 55mn\nBit rate mode : Constant\nBit rate : 128 Kbps\nChannel(s) : 2 channels\nChannel positions : Front: L R\nSampling rate : 48.0 KHz\nCompression mode : Lossy\nStream size : 105 MiB (7%)\nAlignment : Aligned on interleaves\nInterleave, duration : 32 ms (0.96 video frame)","torrent":{"xt":"urn:btih:2a147fce9b5877dbc8653a5728d285819f269515","amp;dn":"SPY.2015.FULL.NEW.CAM.XVID.AC3.MRG","amp;tr":["udp%3A%2F%2Ftracker.openbittorrent.com%3A80","udp%3A%2F%2Fopen.demonii.com%3A1337","udp%3A%2F%2Ftracker.coppersurfer.tk%3A6969","udp%3A%2F%2Fexodus.desync.com%3A6969"],"infoHash":"2a147fce9b5877dbc8653a5728d285819f269515","infoHashBuffer":{"type":"Buffer","data":[42,20,127,206,155,88,119,219,200,101,58,87,40,210,133,129,159,38,149,21]},"announce":[],"urlList":[]}}